<svg width="25" height="26" viewBox="0 0 25 26" fill="none" xmlns="http://www.w3.org/2000/svg">
<path fill-rule="evenodd" clip-rule="evenodd" d="M14.9298 5.25118C14.9763 5.04315 15.0004 4.82877 15.0004 4.6106C15.0004 2.95358 13.657 1.6106 12.0004 1.6106C10.3431 1.6106 9.0004 2.95331 9.0004 4.6106C9.0004 4.82874 9.02449 5.04309 9.07097 5.25109C6.73685 6.32836 5.09617 8.65303 5.00436 11.3697L4.99383 11.9994C4.93787 13.6836 4.51916 15.3363 3.76397 16.8459L2.10582 20.1632C1.77347 20.8281 2.25697 21.6103 3.0003 21.6103H8.0006C8.0006 23.8196 9.79131 25.6103 12.0006 25.6103C14.2099 25.6103 16.0006 23.8196 16.0006 21.6103H21.0003C21.7436 21.6103 22.2271 20.8281 21.8948 20.1632L20.2368 16.8462C19.4814 15.3364 19.0627 13.6836 19.0068 11.9994L18.9962 11.3697C18.9044 8.6531 17.2638 6.32848 14.9298 5.25118ZM12.9978 4.68086C12.9995 4.65756 13.0004 4.63413 13.0004 4.6106C13.0004 4.0583 12.5525 3.6106 12.0004 3.6106C11.4477 3.6106 11.0004 4.05788 11.0004 4.6106C11.0004 4.63412 11.0013 4.65754 11.003 4.68083C11.3288 4.63435 11.6617 4.6103 12.0003 4.6103C12.3389 4.6103 12.672 4.63436 12.9978 4.68086ZM13.2155 6.7591C13.2809 6.78449 13.3481 6.80264 13.4161 6.81369C15.4213 7.40494 16.9029 9.21987 16.9957 11.3935L17.0069 12.0356C17.0684 14.0179 17.5592 15.9641 18.448 17.7407L19.3825 19.6103H4.61811L5.55278 17.7404C6.44144 15.9641 6.93222 14.0179 6.9937 12.0356L7.00492 11.3935C7.09773 9.21995 8.57917 7.40508 10.5843 6.81376C10.6525 6.8027 10.72 6.78448 10.7857 6.75896C11.1745 6.66185 11.5814 6.6103 12.0003 6.6103C12.4194 6.6103 12.8265 6.6619 13.2155 6.7591ZM14.0006 21.6103H10.0006C10.0006 22.715 10.8959 23.6103 12.0006 23.6103C13.1053 23.6103 14.0006 22.715 14.0006 21.6103Z" fill="#406A76"/>
<circle cx="20" cy="5.61035" r="4.5" fill="#FF5267" stroke="white"/>
</svg>
