<svg width="220" height="318" viewBox="0 0 220 318" fill="none" xmlns="http://www.w3.org/2000/svg">
<g filter="url(#filter0_d_1_25571)">
<g clip-path="url(#clip0_1_25571)">
<path d="M11 11C11 6.58172 14.5817 3 19 3H193C201.837 3 209 10.1634 209 19V283C209 291.837 201.837 299 193 299H19C14.5817 299 11 295.418 11 291V11Z" fill="#E8FFFC"/>
<mask id="mask0_1_25571" style="mask-type:luminance" maskUnits="userSpaceOnUse" x="11" y="3" width="198" height="296">
<path d="M11 3H209V299H11V3Z" fill="white"/>
</mask>
<g mask="url(#mask0_1_25571)">
<path d="M79.5653 261.562C79.5123 261.066 79.2888 260.68 78.8949 260.403C78.5047 260.127 77.9972 259.989 77.3722 259.989C76.9328 259.989 76.5559 260.055 76.2415 260.188C75.9271 260.32 75.6866 260.5 75.5199 260.727C75.3532 260.955 75.268 261.214 75.2642 261.506C75.2642 261.748 75.3191 261.958 75.429 262.136C75.5426 262.314 75.696 262.466 75.8892 262.591C76.0824 262.712 76.2964 262.814 76.5312 262.898C76.7661 262.981 77.0028 263.051 77.2415 263.108L78.3324 263.381C78.7718 263.483 79.1941 263.621 79.5994 263.795C80.0085 263.97 80.3741 264.189 80.696 264.455C81.0218 264.72 81.2794 265.04 81.4688 265.415C81.6581 265.79 81.7528 266.229 81.7528 266.733C81.7528 267.415 81.5786 268.015 81.2301 268.534C80.8816 269.049 80.3778 269.453 79.7188 269.744C79.0634 270.032 78.2699 270.176 77.3381 270.176C76.4328 270.176 75.6468 270.036 74.9801 269.756C74.3172 269.475 73.7983 269.066 73.4233 268.528C73.0521 267.991 72.8513 267.335 72.821 266.562H74.8949C74.9252 266.968 75.0502 267.305 75.2699 267.574C75.4896 267.843 75.7756 268.044 76.1278 268.176C76.4839 268.309 76.8816 268.375 77.321 268.375C77.7794 268.375 78.1809 268.307 78.5256 268.17C78.8741 268.03 79.1468 267.837 79.3438 267.591C79.5407 267.341 79.6411 267.049 79.6449 266.716C79.6411 266.413 79.5521 266.163 79.3778 265.966C79.2036 265.765 78.9593 265.598 78.6449 265.466C78.3343 265.33 77.9706 265.208 77.554 265.102L76.2301 264.761C75.2718 264.515 74.5142 264.142 73.9574 263.642C73.4044 263.138 73.1278 262.47 73.1278 261.636C73.1278 260.951 73.3134 260.35 73.6847 259.835C74.0597 259.32 74.5691 258.92 75.2131 258.636C75.857 258.348 76.5862 258.205 77.4006 258.205C78.2263 258.205 78.9498 258.348 79.571 258.636C80.196 258.92 80.6866 259.316 81.0426 259.824C81.3987 260.328 81.5824 260.907 81.5938 261.562H79.5653ZM87.4048 270.17C86.5298 270.17 85.7741 269.989 85.1378 269.625C84.5052 269.258 84.0185 268.739 83.6776 268.068C83.3366 267.394 83.1662 266.6 83.1662 265.688C83.1662 264.79 83.3366 264.002 83.6776 263.324C84.0223 262.642 84.5033 262.112 85.1207 261.733C85.7382 261.35 86.4635 261.159 87.2969 261.159C87.8348 261.159 88.3423 261.246 88.8196 261.42C89.3007 261.591 89.7249 261.856 90.0923 262.216C90.4635 262.576 90.7552 263.034 90.9673 263.591C91.1795 264.144 91.2855 264.803 91.2855 265.568V266.199H84.1321V264.812H89.3139C89.3101 264.419 89.2249 264.068 89.0582 263.761C88.8916 263.451 88.6586 263.206 88.3594 263.028C88.0639 262.85 87.7192 262.761 87.3253 262.761C86.9048 262.761 86.5355 262.864 86.2173 263.068C85.8991 263.269 85.651 263.534 85.473 263.864C85.2988 264.189 85.2098 264.547 85.206 264.938V266.148C85.206 266.655 85.2988 267.091 85.4844 267.455C85.67 267.814 85.9295 268.091 86.2628 268.284C86.5961 268.473 86.9863 268.568 87.4332 268.568C87.7325 268.568 88.0033 268.527 88.2457 268.443C88.4882 268.356 88.6984 268.229 88.8764 268.062C89.0545 267.896 89.1889 267.689 89.2798 267.443L91.2003 267.659C91.0791 268.167 90.848 268.61 90.5071 268.989C90.17 269.364 89.7382 269.655 89.2116 269.864C88.6851 270.068 88.0829 270.17 87.4048 270.17ZM93.0256 270V261.273H94.9915V262.756H95.0938C95.2756 262.256 95.5767 261.866 95.9972 261.585C96.4176 261.301 96.9195 261.159 97.5028 261.159C98.0938 261.159 98.5919 261.303 98.9972 261.591C99.4063 261.875 99.6941 262.263 99.8608 262.756H99.9517C100.145 262.271 100.471 261.884 100.929 261.597C101.391 261.305 101.938 261.159 102.571 261.159C103.374 261.159 104.029 261.413 104.537 261.92C105.045 262.428 105.298 263.169 105.298 264.142V270H103.236V264.46C103.236 263.919 103.092 263.523 102.804 263.273C102.516 263.019 102.164 262.892 101.747 262.892C101.251 262.892 100.863 263.047 100.582 263.358C100.306 263.665 100.168 264.064 100.168 264.557V270H98.1506V264.375C98.1506 263.924 98.0142 263.564 97.7415 263.295C97.4725 263.027 97.1203 262.892 96.6847 262.892C96.3892 262.892 96.1203 262.968 95.8778 263.119C95.6354 263.267 95.4422 263.477 95.2983 263.75C95.1544 264.019 95.0824 264.333 95.0824 264.693V270H93.0256ZM115.161 270.17C114.289 270.17 113.541 269.979 112.916 269.597C112.295 269.214 111.816 268.686 111.479 268.011C111.145 267.333 110.979 266.553 110.979 265.67C110.979 264.784 111.149 264.002 111.49 263.324C111.831 262.642 112.312 262.112 112.933 261.733C113.558 261.35 114.297 261.159 115.149 261.159C115.857 261.159 116.484 261.29 117.03 261.551C117.579 261.809 118.017 262.174 118.342 262.648C118.668 263.117 118.854 263.667 118.899 264.295H116.933C116.854 263.875 116.664 263.525 116.365 263.244C116.07 262.96 115.674 262.818 115.178 262.818C114.757 262.818 114.388 262.932 114.07 263.159C113.751 263.383 113.503 263.705 113.325 264.125C113.151 264.545 113.064 265.049 113.064 265.636C113.064 266.231 113.151 266.742 113.325 267.17C113.5 267.595 113.744 267.922 114.058 268.153C114.376 268.381 114.75 268.494 115.178 268.494C115.481 268.494 115.751 268.437 115.99 268.324C116.232 268.206 116.435 268.038 116.598 267.818C116.761 267.598 116.873 267.331 116.933 267.017H118.899C118.85 267.634 118.668 268.182 118.354 268.659C118.039 269.133 117.611 269.504 117.07 269.773C116.528 270.038 115.892 270.17 115.161 270.17ZM123.099 270.176C122.546 270.176 122.048 270.078 121.605 269.881C121.166 269.68 120.817 269.384 120.56 268.994C120.306 268.604 120.179 268.123 120.179 267.551C120.179 267.059 120.27 266.652 120.452 266.33C120.634 266.008 120.882 265.75 121.196 265.557C121.51 265.364 121.865 265.218 122.259 265.119C122.656 265.017 123.067 264.943 123.491 264.898C124.003 264.845 124.418 264.797 124.736 264.756C125.054 264.71 125.285 264.642 125.429 264.551C125.577 264.456 125.651 264.311 125.651 264.114V264.08C125.651 263.652 125.524 263.32 125.27 263.085C125.016 262.85 124.651 262.733 124.173 262.733C123.67 262.733 123.27 262.843 122.974 263.062C122.683 263.282 122.486 263.542 122.384 263.841L120.463 263.568C120.615 263.038 120.865 262.595 121.213 262.239C121.562 261.879 121.988 261.61 122.491 261.432C122.995 261.25 123.552 261.159 124.162 261.159C124.582 261.159 125.001 261.208 125.418 261.307C125.834 261.405 126.215 261.568 126.56 261.795C126.904 262.019 127.181 262.324 127.389 262.71C127.601 263.097 127.707 263.58 127.707 264.159V270H125.73V268.801H125.662C125.537 269.044 125.361 269.271 125.134 269.483C124.91 269.691 124.628 269.86 124.287 269.989C123.95 270.114 123.554 270.176 123.099 270.176ZM123.634 268.665C124.046 268.665 124.404 268.583 124.707 268.42C125.01 268.254 125.243 268.034 125.406 267.761C125.573 267.489 125.656 267.191 125.656 266.869V265.841C125.592 265.894 125.482 265.943 125.327 265.989C125.175 266.034 125.005 266.074 124.815 266.108C124.626 266.142 124.438 266.172 124.253 266.199C124.067 266.225 123.906 266.248 123.77 266.267C123.463 266.309 123.188 266.377 122.946 266.472C122.704 266.566 122.512 266.699 122.372 266.869C122.232 267.036 122.162 267.252 122.162 267.517C122.162 267.896 122.3 268.182 122.577 268.375C122.853 268.568 123.205 268.665 123.634 268.665ZM129.776 273.273V261.273H131.798V262.716H131.918C132.024 262.504 132.173 262.278 132.366 262.04C132.56 261.797 132.821 261.591 133.151 261.42C133.48 261.246 133.901 261.159 134.412 261.159C135.086 261.159 135.694 261.331 136.236 261.676C136.781 262.017 137.213 262.523 137.531 263.193C137.853 263.86 138.014 264.678 138.014 265.648C138.014 266.606 137.857 267.42 137.543 268.091C137.228 268.761 136.8 269.273 136.259 269.625C135.717 269.977 135.103 270.153 134.418 270.153C133.918 270.153 133.503 270.07 133.173 269.903C132.844 269.737 132.579 269.536 132.378 269.301C132.181 269.062 132.027 268.837 131.918 268.625H131.832V273.273H129.776ZM131.793 265.636C131.793 266.201 131.872 266.695 132.031 267.119C132.194 267.544 132.427 267.875 132.73 268.114C133.037 268.348 133.408 268.466 133.844 268.466C134.298 268.466 134.679 268.345 134.986 268.102C135.293 267.856 135.524 267.521 135.679 267.097C135.838 266.669 135.918 266.182 135.918 265.636C135.918 265.095 135.84 264.614 135.685 264.193C135.529 263.773 135.298 263.443 134.991 263.205C134.685 262.966 134.302 262.847 133.844 262.847C133.404 262.847 133.031 262.962 132.724 263.193C132.418 263.424 132.185 263.748 132.026 264.165C131.87 264.581 131.793 265.072 131.793 265.636ZM142.287 270.176C141.734 270.176 141.236 270.078 140.793 269.881C140.353 269.68 140.005 269.384 139.747 268.994C139.493 268.604 139.366 268.123 139.366 267.551C139.366 267.059 139.457 266.652 139.639 266.33C139.821 266.008 140.069 265.75 140.384 265.557C140.698 265.364 141.052 265.218 141.446 265.119C141.844 265.017 142.255 264.943 142.679 264.898C143.19 264.845 143.605 264.797 143.923 264.756C144.241 264.71 144.473 264.642 144.616 264.551C144.764 264.456 144.838 264.311 144.838 264.114V264.08C144.838 263.652 144.711 263.32 144.457 263.085C144.204 262.85 143.838 262.733 143.361 262.733C142.857 262.733 142.457 262.843 142.162 263.062C141.87 263.282 141.673 263.542 141.571 263.841L139.651 263.568C139.802 263.038 140.052 262.595 140.401 262.239C140.749 261.879 141.175 261.61 141.679 261.432C142.183 261.25 142.74 261.159 143.349 261.159C143.77 261.159 144.188 261.208 144.605 261.307C145.022 261.405 145.402 261.568 145.747 261.795C146.092 262.019 146.368 262.324 146.577 262.71C146.789 263.097 146.895 263.58 146.895 264.159V270H144.918V268.801H144.849C144.724 269.044 144.548 269.271 144.321 269.483C144.098 269.691 143.815 269.86 143.474 269.989C143.137 270.114 142.741 270.176 142.287 270.176ZM142.821 268.665C143.234 268.665 143.592 268.583 143.895 268.42C144.198 268.254 144.431 268.034 144.594 267.761C144.76 267.489 144.844 267.191 144.844 266.869V265.841C144.779 265.894 144.67 265.943 144.514 265.989C144.363 266.034 144.192 266.074 144.003 266.108C143.813 266.142 143.626 266.172 143.44 266.199C143.255 266.225 143.094 266.248 142.957 266.267C142.651 266.309 142.376 266.377 142.134 266.472C141.891 266.566 141.7 266.699 141.56 266.869C141.42 267.036 141.349 267.252 141.349 267.517C141.349 267.896 141.488 268.182 141.764 268.375C142.041 268.568 142.393 268.665 142.821 268.665Z" fill="black"/>
</g>
</g>
</g>
<path fill-rule="evenodd" clip-rule="evenodd" d="M151.289 31.1608C152.901 30.6711 154.647 31.3282 155.5 32.7474C158.23 37.2948 164.267 47.8463 159.837 58.96C155.405 70.0711 143.265 74.8184 138.092 76.39C136.48 76.8822 134.735 76.2226 133.884 74.8059C131.151 70.256 125.15 59.3422 129.583 48.2286C134.015 37.1174 146.119 32.7349 151.289 31.1608ZM174.323 92.7038C174.93 94.008 174.514 95.5472 173.323 96.3892C169.863 98.8403 162.073 103.248 153.203 100.974C144.336 98.7029 139.791 91.1347 138.025 87.3468C137.415 86.0426 137.834 84.506 139.025 83.6614C142.483 81.2103 150.275 76.8053 159.142 79.0765C168.012 81.3478 172.557 88.9159 174.323 92.7038Z" fill="#45D0C1"/>
<path fill-rule="evenodd" clip-rule="evenodd" d="M122.253 148.425C120.699 149.073 118.896 148.594 117.904 147.268C114.732 143.017 107.669 133.124 110.962 121.622C114.259 110.123 125.862 104.183 130.851 102.101C132.405 101.449 134.208 101.931 135.197 103.255C138.372 107.508 145.436 117.766 142.14 129.267C138.843 140.767 127.24 146.34 122.253 148.425ZM93.1675 89.4997C92.4331 88.2629 92.6932 86.6897 93.7932 85.7327C96.9906 82.9471 104.3 77.7812 113.352 79.1546C122.402 80.5257 127.683 87.6003 129.82 91.1921C130.557 92.4287 130.294 93.9996 129.195 94.9591C126 97.7444 118.688 102.908 109.638 101.537C100.585 100.166 95.3044 93.0915 93.1675 89.4997Z" fill="#45D0C1"/>
<defs>
<filter id="filter0_d_1_25571" x="0" y="0" width="220" height="318" filterUnits="userSpaceOnUse" color-interpolation-filters="sRGB">
<feFlood flood-opacity="0" result="BackgroundImageFix"/>
<feColorMatrix in="SourceAlpha" type="matrix" values="0 0 0 0 0 0 0 0 0 0 0 0 0 0 0 0 0 0 127 0" result="hardAlpha"/>
<feMorphology radius="1" operator="dilate" in="SourceAlpha" result="effect1_dropShadow_1_25571"/>
<feOffset dy="8"/>
<feGaussianBlur stdDeviation="5"/>
<feColorMatrix type="matrix" values="0 0 0 0 0.0196078 0 0 0 0 0.231373 0 0 0 0 0.294118 0 0 0 0.06 0"/>
<feBlend mode="normal" in2="BackgroundImageFix" result="effect1_dropShadow_1_25571"/>
<feBlend mode="normal" in="SourceGraphic" in2="effect1_dropShadow_1_25571" result="shape"/>
</filter>
<clipPath id="clip0_1_25571">
<path d="M11 11C11 6.58172 14.5817 3 19 3H193C201.837 3 209 10.1634 209 19V283C209 291.837 201.837 299 193 299H19C14.5817 299 11 295.418 11 291V11Z" fill="white"/>
</clipPath>
</defs>
</svg>
